<svg width="13" height="10" viewBox="0 0 13 10" fill="none" xmlns="http://www.w3.org/2000/svg">
<path d="M11.4947 2.83926L10.7242 3.99826C11.0958 4.73943 11.2777 5.56123 11.2536 6.39C11.2296 7.21878 11.0003 8.02864 10.5863 8.74702H1.90323C1.36518 7.81362 1.14223 6.73169 1.26743 5.66162C1.39264 4.59155 1.85932 3.5903 2.5983 2.80632C3.33729 2.02234 4.30923 1.49735 5.37004 1.30919C6.43085 1.12102 7.52406 1.2797 8.4876 1.7617L9.6466 0.991123C8.4666 0.234463 7.06693 -0.104598 5.67147 0.0281741C4.27602 0.160946 2.9654 0.75788 1.94927 1.72349C0.933142 2.6891 0.270208 3.9676 0.0665097 5.35448C-0.137189 6.74136 0.130119 8.15649 0.825675 9.3735C0.935003 9.56288 1.09199 9.72034 1.28102 9.83024C1.47006 9.94015 1.68457 9.99867 1.90323 9.99999H10.5801C10.8008 10.0009 11.0179 9.94339 11.2094 9.83337C11.4008 9.72336 11.5598 9.56471 11.6701 9.3735C12.2474 8.37358 12.5371 7.2336 12.5072 6.07941C12.4774 4.92523 12.1291 3.80174 11.501 2.83299L11.4947 2.83926ZM5.36143 7.12442C5.4778 7.24092 5.61599 7.33333 5.7681 7.39639C5.92021 7.45944 6.08325 7.4919 6.24791 7.4919C6.41257 7.4919 6.57562 7.45944 6.72772 7.39639C6.87983 7.33333 7.01802 7.24092 7.13439 7.12442L10.6803 1.80555L5.36143 5.35146C5.24494 5.46783 5.15252 5.60602 5.08946 5.75813C5.02641 5.91024 4.99395 6.07328 4.99395 6.23794C4.99395 6.4026 5.02641 6.56565 5.08946 6.71776C5.15252 6.86986 5.24494 7.00805 5.36143 7.12442Z" fill="white"/>
</svg>
