<svg width="14" height="14" viewBox="0 0 14 14" fill="none" xmlns="http://www.w3.org/2000/svg">
<path d="M11.8811 11.0612C12.1769 10.6096 12.3489 10.0664 12.3489 9.49042C12.3489 7.85414 10.973 6.54511 9.25995 6.54511C7.54693 6.54511 6.16413 7.85414 6.16413 9.49042C6.16413 11.1267 7.54005 12.4357 9.25995 12.4357C9.85848 12.4357 10.4226 12.2721 10.8973 11.9906L13.0437 14L14 13.0902L11.8811 11.0612ZM9.25995 11.1267C8.30369 11.1267 7.54005 10.3936 7.54005 9.49042C7.54005 8.58719 8.30369 7.85414 9.25995 7.85414C10.2162 7.85414 10.973 8.58719 10.973 9.49042C10.973 10.3936 10.2093 11.1267 9.25995 11.1267ZM13.7592 7.85414H13.3808C13.1538 7.32398 12.8098 6.85273 12.3833 6.45348V5.23609H13.7592V7.85414ZM12.3833 1.30902H10.3194V0H12.3833C13.1469 0 13.7592 0.58906 13.7592 1.30902V3.27256H12.3833V1.30902ZM8.25553 1.30902H5.50369V0H8.25553V1.30902ZM1.37592 0H3.4398V1.30902H1.37592V3.27256H0V1.30902C0 0.582515 0.619165 0 1.37592 0ZM6.87961 13.0902H5.50369V11.7812C5.84767 12.3179 6.32924 12.763 6.87961 13.0902ZM1.37592 11.7812H3.4398V13.0902H1.37592C0.619165 13.0902 0 12.5077 0 11.7812V9.81767H1.37592V11.7812ZM1.37592 7.85414H0V5.23609H1.37592V7.85414Z" fill="white"/>
</svg>
