<svg width="14" height="14" viewBox="0 0 14 14" fill="none" xmlns="http://www.w3.org/2000/svg">
<path d="M8.533 8.533L2.8 11.2L5.467 5.467L11.2 2.8M7 0C6.08075 0 5.17049 0.18106 4.32122 0.532843C3.47194 0.884626 2.70026 1.40024 2.05025 2.05025C0.737498 3.36301 0 5.14348 0 7C0 8.85651 0.737498 10.637 2.05025 11.9497C2.70026 12.5998 3.47194 13.1154 4.32122 13.4672C5.17049 13.8189 6.08075 14 7 14C8.85651 14 10.637 13.2625 11.9497 11.9497C13.2625 10.637 14 8.85651 14 7C14 6.08075 13.8189 5.17049 13.4672 4.32122C13.1154 3.47194 12.5998 2.70026 11.9497 2.05025C11.2997 1.40024 10.5281 0.884626 9.67878 0.532843C8.8295 0.18106 7.91925 0 7 0ZM7 6.23C6.79578 6.23 6.59993 6.31112 6.45553 6.45553C6.31112 6.59993 6.23 6.79578 6.23 7C6.23 7.20422 6.31112 7.40007 6.45553 7.54447C6.59993 7.68888 6.79578 7.77 7 7.77C7.20422 7.77 7.40007 7.68888 7.54447 7.54447C7.68888 7.40007 7.77 7.20422 7.77 7C7.77 6.79578 7.68888 6.59993 7.54447 6.45553C7.40007 6.31112 7.20422 6.23 7 6.23Z" fill="white"/>
</svg>
