<svg width="20" height="20" viewBox="0 0 20 20" fill="none" xmlns="http://www.w3.org/2000/svg">
<g clip-path="url(#clip0_0_45)">
<path d="M4.58301 0.833496C6.66634 0.833496 8.33301 2.50016 8.33301 4.5835C8.33301 5.31683 8.12468 6.00016 7.75801 6.5835L7.84134 6.66683H12.158L12.2413 6.5835C11.8747 6.00016 11.6663 5.31683 11.6663 4.5835C11.6663 2.50016 13.333 0.833496 15.4163 0.833496C17.4997 0.833496 19.1663 2.50016 19.1663 4.5835C19.1663 6.66683 17.4997 8.3335 15.4163 8.3335C14.683 8.3335 13.9997 8.12516 13.4163 7.7585L12.4997 8.67516V11.3252L13.4163 12.2418C13.9997 11.8752 14.683 11.6668 15.4163 11.6668C17.4997 11.6668 19.1663 13.3335 19.1663 15.4168C19.1663 17.5002 17.4997 19.1668 15.4163 19.1668C13.333 19.1668 11.6663 17.5002 11.6663 15.4168C11.6663 14.6835 11.8747 14.0002 12.2413 13.4168L12.158 13.3335H7.84134L7.75801 13.4168C8.12468 14.0002 8.33301 14.6835 8.33301 15.4168C8.33301 17.5002 6.66634 19.1668 4.58301 19.1668C2.49967 19.1668 0.833008 17.5002 0.833008 15.4168C0.833008 13.3335 2.49967 11.6668 4.58301 11.6668C5.31634 11.6668 5.99967 11.8752 6.58301 12.2418L7.49967 11.3252V8.67516L6.58301 7.7585C5.99967 8.12516 5.31634 8.3335 4.58301 8.3335C2.49967 8.3335 0.833008 6.66683 0.833008 4.5835C0.833008 2.50016 2.49967 0.833496 4.58301 0.833496ZM4.58301 2.50016C4.03047 2.50016 3.50057 2.71966 3.10987 3.11036C2.71917 3.50106 2.49967 4.03096 2.49967 4.5835C2.49967 5.13603 2.71917 5.66593 3.10987 6.05664C3.50057 6.44734 4.03047 6.66683 4.58301 6.66683C5.13554 6.66683 5.66545 6.44734 6.05615 6.05664C6.44685 5.66593 6.66634 5.13603 6.66634 4.5835C6.66634 4.03096 6.44685 3.50106 6.05615 3.11036C5.66545 2.71966 5.13554 2.50016 4.58301 2.50016ZM4.58301 13.3335C4.03047 13.3335 3.50057 13.553 3.10987 13.9437C2.71917 14.3344 2.49967 14.8643 2.49967 15.4168C2.49967 15.9694 2.71917 16.4993 3.10987 16.89C3.50057 17.2807 4.03047 17.5002 4.58301 17.5002C5.13554 17.5002 5.66545 17.2807 6.05615 16.89C6.44685 16.4993 6.66634 15.9694 6.66634 15.4168C6.66634 14.8643 6.44685 14.3344 6.05615 13.9437C5.66545 13.553 5.13554 13.3335 4.58301 13.3335ZM15.4163 2.50016C14.8638 2.50016 14.3339 2.71966 13.9432 3.11036C13.5525 3.50106 13.333 4.03096 13.333 4.5835C13.333 5.13603 13.5525 5.66593 13.9432 6.05664C14.3339 6.44734 14.8638 6.66683 15.4163 6.66683C15.9689 6.66683 16.4988 6.44734 16.8895 6.05664C17.2802 5.66593 17.4997 5.13603 17.4997 4.5835C17.4997 4.03096 17.2802 3.50106 16.8895 3.11036C16.4988 2.71966 15.9689 2.50016 15.4163 2.50016ZM15.4163 13.3335C14.8638 13.3335 14.3339 13.553 13.9432 13.9437C13.5525 14.3344 13.333 14.8643 13.333 15.4168C13.333 15.9694 13.5525 16.4993 13.9432 16.89C14.3339 17.2807 14.8638 17.5002 15.4163 17.5002C15.9689 17.5002 16.4988 17.2807 16.8895 16.89C17.2802 16.4993 17.4997 15.9694 17.4997 15.4168C17.4997 14.8643 17.2802 14.3344 16.8895 13.9437C16.4988 13.553 15.9689 13.3335 15.4163 13.3335ZM3.25801 14.3752L4.19967 14.9252C4.30801 14.8418 4.44134 14.7918 4.58301 14.7918C4.74877 14.7918 4.90774 14.8577 5.02495 14.9749C5.14216 15.0921 5.20801 15.2511 5.20801 15.4168L5.19967 15.5002L6.14134 16.0418L5.90801 16.4585L4.96634 15.9085C4.85801 15.9918 4.72467 16.0418 4.58301 16.0418C4.41725 16.0418 4.25828 15.976 4.14107 15.8588C4.02386 15.7416 3.95801 15.5826 3.95801 15.4168L3.96634 15.3335L3.02467 14.7918L3.25801 14.3752ZM3.02467 5.2085L3.96634 4.66683L3.95801 4.5835C3.95801 4.41774 4.02386 4.25876 4.14107 4.14155C4.25828 4.02434 4.41725 3.9585 4.58301 3.9585C4.72467 3.9585 4.85801 4.0085 4.96634 4.09183L5.90801 3.54183L6.14134 3.9585L5.19967 4.50016L5.20801 4.5835C5.20801 4.74926 5.14216 4.90823 5.02495 5.02544C4.90774 5.14265 4.74877 5.2085 4.58301 5.2085C4.44134 5.2085 4.30801 5.1585 4.19967 5.07516L3.25801 5.62516L3.02467 5.2085ZM14.0913 3.54183L15.033 4.09183C15.1413 4.0085 15.2747 3.9585 15.4163 3.9585C15.5821 3.9585 15.7411 4.02434 15.8583 4.14155C15.9755 4.25876 16.0413 4.41774 16.0413 4.5835L16.033 4.66683L16.9747 5.2085L16.7413 5.62516L15.7997 5.07516C15.6913 5.1585 15.558 5.2085 15.4163 5.2085C15.2506 5.2085 15.0916 5.14265 14.9744 5.02544C14.8572 4.90823 14.7913 4.74926 14.7913 4.5835L14.7997 4.50016L13.858 3.9585L14.0913 3.54183ZM13.858 16.0418L14.7913 15.4168C14.7913 15.2511 14.8572 15.0921 14.9744 14.9749C15.0916 14.8577 15.2506 14.7918 15.4163 14.7918C15.558 14.7918 15.6913 14.8418 15.7997 14.9252L16.7413 14.3752L16.9747 14.7918L16.0413 15.4168C16.0413 15.5826 15.9755 15.7416 15.8583 15.8588C15.7411 15.976 15.5821 16.0418 15.4163 16.0418C15.2747 16.0418 15.1413 15.9918 15.033 15.9085L14.0913 16.4585L13.858 16.0418Z" fill="black"/>
</g>
<defs>
<clipPath id="clip0_0_45">
<rect width="20" height="20" fill="white"/>
</clipPath>
</defs>
</svg>
